<svg width="482" height="120" viewBox="0 0 482 120" fill="none" xmlns="http://www.w3.org/2000/svg">
<path d="M190.938 87C190.41 86.0332 189.941 84.6123 189.531 82.7373C186.807 86.165 182.998 87.8789 178.105 87.8789C173.623 87.8789 169.814 86.5312 166.68 83.8359C163.545 81.1113 161.978 77.6982 161.978 73.5967C161.978 68.4404 163.882 64.5439 167.69 61.9072C171.499 59.2705 177.036 57.9521 184.302 57.9521H188.872V55.4473C188.872 51.082 186.982 48.8994 183.203 48.8994C179.688 48.8994 177.93 50.6279 177.93 54.085H163.12C163.12 49.4854 165.068 45.75 168.965 42.8789C172.891 40.0078 177.886 38.5723 183.95 38.5723C190.015 38.5723 194.805 40.0518 198.32 43.0107C201.836 45.9697 203.638 50.0273 203.726 55.1836V76.2334C203.784 80.5986 204.458 83.9385 205.747 86.2529V87H190.938ZM181.665 77.332C183.511 77.332 185.034 76.9365 186.235 76.1455C187.466 75.3545 188.345 74.4609 188.872 73.4648V65.8623H184.565C179.409 65.8623 176.831 68.1768 176.831 72.8057C176.831 74.1533 177.285 75.252 178.193 76.1016C179.102 76.9219 180.259 77.332 181.665 77.332ZM238.75 87C238.223 86.0332 237.754 84.6123 237.344 82.7373C234.619 86.165 230.811 87.8789 225.918 87.8789C221.436 87.8789 217.627 86.5312 214.492 83.8359C211.357 81.1113 209.79 77.6982 209.79 73.5967C209.79 68.4404 211.694 64.5439 215.503 61.9072C219.312 59.2705 224.849 57.9521 232.114 57.9521H236.685V55.4473C236.685 51.082 234.795 48.8994 231.016 48.8994C227.5 48.8994 225.742 50.6279 225.742 54.085H210.933C210.933 49.4854 212.881 45.75 216.777 42.8789C220.703 40.0078 225.698 38.5723 231.763 38.5723C237.827 38.5723 242.617 40.0518 246.133 43.0107C249.648 45.9697 251.45 50.0273 251.538 55.1836V76.2334C251.597 80.5986 252.271 83.9385 253.56 86.2529V87H238.75ZM229.478 77.332C231.323 77.332 232.847 76.9365 234.048 76.1455C235.278 75.3545 236.157 74.4609 236.685 73.4648V65.8623H232.378C227.222 65.8623 224.644 68.1768 224.644 72.8057C224.644 74.1533 225.098 75.252 226.006 76.1016C226.914 76.9219 228.071 77.332 229.478 77.332ZM288.101 81.8584C284.966 85.8721 280.732 87.8789 275.4 87.8789C270.186 87.8789 266.23 86.3701 263.535 83.3525C260.869 80.3057 259.536 75.9404 259.536 70.2568V39.4512H274.346V70.3447C274.346 74.417 276.323 76.4531 280.278 76.4531C283.677 76.4531 286.094 75.2373 287.529 72.8057V39.4512H302.427V87H288.54L288.101 81.8584ZM308.711 62.874C308.711 55.3447 310.337 49.4121 313.589 45.0762C316.841 40.7402 321.382 38.5723 327.212 38.5723C331.46 38.5723 335.034 40.2422 337.935 43.582V19.5H352.788V87H339.473L338.726 81.9023C335.679 85.8867 331.812 87.8789 327.124 87.8789C321.47 87.8789 316.987 85.7109 313.677 81.375C310.366 77.0391 308.711 70.8721 308.711 62.874ZM323.521 63.7969C323.521 72.2344 325.981 76.4531 330.903 76.4531C334.185 76.4531 336.528 75.0762 337.935 72.3223V54.2168C336.587 51.4043 334.272 49.998 330.991 49.998C326.421 49.998 323.945 53.6895 323.564 61.0723L323.521 63.7969ZM359.336 62.7861C359.336 58.04 360.259 53.8213 362.104 50.1299C363.95 46.4092 366.602 43.5527 370.059 41.5605C373.516 39.5684 377.573 38.5723 382.231 38.5723C389.351 38.5723 394.961 40.7842 399.062 45.208C403.164 49.6025 405.215 55.5938 405.215 63.1816V63.709C405.215 71.1211 403.149 77.0098 399.019 81.375C394.917 85.7109 389.351 87.8789 382.319 87.8789C375.552 87.8789 370.117 85.8574 366.016 81.8145C361.914 77.7422 359.702 72.2344 359.38 65.291L359.336 62.7861ZM374.146 63.709C374.146 68.1035 374.834 71.3262 376.211 73.377C377.588 75.4277 379.624 76.4531 382.319 76.4531C387.593 76.4531 390.288 72.3955 390.405 64.2803V62.7861C390.405 54.2607 387.681 49.998 382.231 49.998C377.28 49.998 374.6 53.6748 374.189 61.0283L374.146 63.709ZM431.846 76.4531C433.926 76.4531 435.537 75.8965 436.68 74.7832C437.822 73.6406 438.379 72.0586 438.35 70.0371H452.236C452.236 75.252 450.361 79.5293 446.611 82.8691C442.891 86.209 438.086 87.8789 432.197 87.8789C425.283 87.8789 419.834 85.7109 415.85 81.375C411.865 77.0391 409.873 71.0332 409.873 63.3574V62.7422C409.873 57.9375 410.752 53.7041 412.51 50.042C414.297 46.3506 416.86 43.5234 420.2 41.5605C423.54 39.5684 427.495 38.5723 432.065 38.5723C438.247 38.5723 443.154 40.2861 446.787 43.7139C450.42 47.1416 452.236 51.7852 452.236 57.6445H438.35C438.35 55.1836 437.749 53.2939 436.548 51.9756C435.347 50.6572 433.735 49.998 431.714 49.998C427.876 49.998 425.635 52.4443 424.99 57.3369C424.785 58.8896 424.683 61.0283 424.683 63.7529C424.683 68.5283 425.254 71.8389 426.396 73.6846C427.539 75.5303 429.355 76.4531 431.846 76.4531ZM467.661 72.6299C470.005 72.6299 471.953 73.333 473.506 74.7393C475.059 76.1162 475.835 77.8887 475.835 80.0566C475.835 82.2246 475.059 84.0117 473.506 85.418C471.953 86.7949 470.005 87.4834 467.661 87.4834C465.288 87.4834 463.325 86.7803 461.772 85.374C460.249 83.9678 459.487 82.1953 459.487 80.0566C459.487 77.918 460.249 76.1455 461.772 74.7393C463.325 73.333 465.288 72.6299 467.661 72.6299Z" fill="black"/>
<rect width="120" height="120" rx="16" fill="#38E1AF"/>
<path d="M28 29C28 27.8954 28.8954 27 30 27H32C45.2548 27 56 37.7452 56 51V82C56 83.1046 55.1046 84 54 84H52C38.7452 84 28 73.2548 28 60V29Z" fill="#53FFCC"/>
<path d="M64 38C64 36.8954 64.8954 36 66 36H68C81.2548 36 92 46.7452 92 60V91C92 92.1046 91.1046 93 90 93H88C74.7452 93 64 82.2548 64 69V38Z" fill="white"/>
</svg>
