<svg width="493" height="103" viewBox="0 0 493 103" fill="none" xmlns="http://www.w3.org/2000/svg">
<mask id="mask0" mask-type="alpha" maskUnits="userSpaceOnUse" x="0" y="1" width="125" height="100">
<rect y="1" width="125" height="100" fill="white"/>
</mask>
<g mask="url(#mask0)">
<path fill-rule="evenodd" clip-rule="evenodd" d="M75 101C75 142.421 41.4214 176 0 176C-41.4214 176 -75 142.421 -75 101C-75 59.5786 -41.4214 26 0 26C41.4214 26 75 59.5786 75 101ZM100 101C100 156.228 55.2285 201 0 201C-55.2285 201 -100 156.228 -100 101C-100 45.7715 -55.2285 1 0 1C55.2285 1 100 45.7715 100 101ZM25 101C25 114.807 13.8071 126 0 126C-13.8071 126 -25 114.807 -25 101C-25 87.1929 -13.8071 76 0 76C13.8071 76 25 87.1929 25 101ZM50 101C50 128.614 27.6142 151 0 151C-27.6142 151 -50 128.614 -50 101C-50 73.3858 -27.6142 51 0 51C27.6142 51 50 73.3858 50 101Z" fill="#0032FC" fill-opacity="0.9"/>
<path fill-rule="evenodd" clip-rule="evenodd" d="M200 101C200 142.421 166.421 176 125 176C83.5786 176 50 142.421 50 101C50 59.5786 83.5786 26 125 26C166.421 26 200 59.5786 200 101ZM225 101C225 156.228 180.228 201 125 201C69.7715 201 25 156.228 25 101C25 45.7715 69.7715 1 125 1C180.228 1 225 45.7715 225 101ZM150 101C150 114.807 138.807 126 125 126C111.193 126 100 114.807 100 101C100 87.1929 111.193 76 125 76C138.807 76 150 87.1929 150 101ZM175 101C175 128.614 152.614 151 125 151C97.3858 151 75 128.614 75 101C75 73.3858 97.3858 51 125 51C152.614 51 175 73.3858 175 101Z" fill="#FF6A59"/>
<path fill-rule="evenodd" clip-rule="evenodd" d="M200 101C200 142.421 166.421 176 125 176C83.5786 176 50 142.421 50 101C50 59.5786 83.5786 26 125 26C166.421 26 200 59.5786 200 101ZM225 101C225 156.228 180.228 201 125 201C69.7715 201 25 156.228 25 101C25 45.7715 69.7715 1 125 1C180.228 1 225 45.7715 225 101ZM150 101C150 114.807 138.807 126 125 126C111.193 126 100 114.807 100 101C100 87.1929 111.193 76 125 76C138.807 76 150 87.1929 150 101ZM175 101C175 128.614 152.614 151 125 151C97.3858 151 75 128.614 75 101C75 73.3858 97.3858 51 125 51C152.614 51 175 73.3858 175 101Z" fill="#FF6A59"/>
<path fill-rule="evenodd" clip-rule="evenodd" d="M75 101C75 142.421 41.4214 176 0 176C-41.4214 176 -75 142.421 -75 101C-75 59.5786 -41.4214 26 0 26C41.4214 26 75 59.5786 75 101ZM100 101C100 156.228 55.2285 201 0 201C-55.2285 201 -100 156.228 -100 101C-100 45.7715 -55.2285 1 0 1C55.2285 1 100 45.7715 100 101ZM25 101C25 114.807 13.8071 126 0 126C-13.8071 126 -25 114.807 -25 101C-25 87.1929 -13.8071 76 0 76C13.8071 76 25 87.1929 25 101ZM50 101C50 128.614 27.6142 151 0 151C-27.6142 151 -50 128.614 -50 101C-50 73.3858 -27.6142 51 0 51C27.6142 51 50 73.3858 50 101Z" fill="url(#paint0_linear)"/>
</g>
<path d="M45 41C53.5 29.5 62.5 23 62.5 23C66 25.5 75 34 80 41C74 45 66 54 62.5 59.5C59.5 54.5 51.5 45.5 45 41Z" fill="black" fill-opacity="0.5"/>
<path d="M92.5 63C96.5 72 100 86 100 101H75C75 81 86.5 68 92.5 63Z" fill="black" fill-opacity="0.5"/>
<path d="M32.5 63C28.5 72 25 86 25 101H50C50 81 38.5 68 32.5 63Z" fill="black" fill-opacity="0.5"/>
<path d="M195.938 82C195.41 81.0332 194.941 79.6123 194.531 77.7373C191.807 81.165 187.998 82.8789 183.105 82.8789C178.623 82.8789 174.814 81.5312 171.68 78.8359C168.545 76.1113 166.978 72.6982 166.978 68.5967C166.978 63.4404 168.882 59.5439 172.69 56.9072C176.499 54.2705 182.036 52.9521 189.302 52.9521H193.872V50.4473C193.872 46.082 191.982 43.8994 188.203 43.8994C184.688 43.8994 182.93 45.6279 182.93 49.085H168.12C168.12 44.4854 170.068 40.75 173.965 37.8789C177.891 35.0078 182.886 33.5723 188.95 33.5723C195.015 33.5723 199.805 35.0518 203.32 38.0107C206.836 40.9697 208.638 45.0273 208.726 50.1836V71.2334C208.784 75.5986 209.458 78.9385 210.747 81.2529V82H195.938ZM186.665 72.332C188.511 72.332 190.034 71.9365 191.235 71.1455C192.466 70.3545 193.345 69.4609 193.872 68.4648V60.8623H189.565C184.409 60.8623 181.831 63.1768 181.831 67.8057C181.831 69.1533 182.285 70.252 183.193 71.1016C184.102 71.9219 185.259 72.332 186.665 72.332ZM243.75 82C243.223 81.0332 242.754 79.6123 242.344 77.7373C239.619 81.165 235.811 82.8789 230.918 82.8789C226.436 82.8789 222.627 81.5312 219.492 78.8359C216.357 76.1113 214.79 72.6982 214.79 68.5967C214.79 63.4404 216.694 59.5439 220.503 56.9072C224.312 54.2705 229.849 52.9521 237.114 52.9521H241.685V50.4473C241.685 46.082 239.795 43.8994 236.016 43.8994C232.5 43.8994 230.742 45.6279 230.742 49.085H215.933C215.933 44.4854 217.881 40.75 221.777 37.8789C225.703 35.0078 230.698 33.5723 236.763 33.5723C242.827 33.5723 247.617 35.0518 251.133 38.0107C254.648 40.9697 256.45 45.0273 256.538 50.1836V71.2334C256.597 75.5986 257.271 78.9385 258.56 81.2529V82H243.75ZM234.478 72.332C236.323 72.332 237.847 71.9365 239.048 71.1455C240.278 70.3545 241.157 69.4609 241.685 68.4648V60.8623H237.378C232.222 60.8623 229.644 63.1768 229.644 67.8057C229.644 69.1533 230.098 70.252 231.006 71.1016C231.914 71.9219 233.071 72.332 234.478 72.332ZM293.101 76.8584C289.966 80.8721 285.732 82.8789 280.4 82.8789C275.186 82.8789 271.23 81.3701 268.535 78.3525C265.869 75.3057 264.536 70.9404 264.536 65.2568V34.4512H279.346V65.3447C279.346 69.417 281.323 71.4531 285.278 71.4531C288.677 71.4531 291.094 70.2373 292.529 67.8057V34.4512H307.427V82H293.54L293.101 76.8584ZM313.711 57.874C313.711 50.3447 315.337 44.4121 318.589 40.0762C321.841 35.7402 326.382 33.5723 332.212 33.5723C336.46 33.5723 340.034 35.2422 342.935 38.582V14.5H357.788V82H344.473L343.726 76.9023C340.679 80.8867 336.812 82.8789 332.124 82.8789C326.47 82.8789 321.987 80.7109 318.677 76.375C315.366 72.0391 313.711 65.8721 313.711 57.874ZM328.521 58.7969C328.521 67.2344 330.981 71.4531 335.903 71.4531C339.185 71.4531 341.528 70.0762 342.935 67.3223V49.2168C341.587 46.4043 339.272 44.998 335.991 44.998C331.421 44.998 328.945 48.6895 328.564 56.0723L328.521 58.7969ZM364.336 57.7861C364.336 53.04 365.259 48.8213 367.104 45.1299C368.95 41.4092 371.602 38.5527 375.059 36.5605C378.516 34.5684 382.573 33.5723 387.231 33.5723C394.351 33.5723 399.961 35.7842 404.062 40.208C408.164 44.6025 410.215 50.5938 410.215 58.1816V58.709C410.215 66.1211 408.149 72.0098 404.019 76.375C399.917 80.7109 394.351 82.8789 387.319 82.8789C380.552 82.8789 375.117 80.8574 371.016 76.8145C366.914 72.7422 364.702 67.2344 364.38 60.291L364.336 57.7861ZM379.146 58.709C379.146 63.1035 379.834 66.3262 381.211 68.377C382.588 70.4277 384.624 71.4531 387.319 71.4531C392.593 71.4531 395.288 67.3955 395.405 59.2803V57.7861C395.405 49.2607 392.681 44.998 387.231 44.998C382.28 44.998 379.6 48.6748 379.189 56.0283L379.146 58.709ZM436.846 71.4531C438.926 71.4531 440.537 70.8965 441.68 69.7832C442.822 68.6406 443.379 67.0586 443.35 65.0371H457.236C457.236 70.252 455.361 74.5293 451.611 77.8691C447.891 81.209 443.086 82.8789 437.197 82.8789C430.283 82.8789 424.834 80.7109 420.85 76.375C416.865 72.0391 414.873 66.0332 414.873 58.3574V57.7422C414.873 52.9375 415.752 48.7041 417.51 45.042C419.297 41.3506 421.86 38.5234 425.2 36.5605C428.54 34.5684 432.495 33.5723 437.065 33.5723C443.247 33.5723 448.154 35.2861 451.787 38.7139C455.42 42.1416 457.236 46.7852 457.236 52.6445H443.35C443.35 50.1836 442.749 48.2939 441.548 46.9756C440.347 45.6572 438.735 44.998 436.714 44.998C432.876 44.998 430.635 47.4443 429.99 52.3369C429.785 53.8896 429.683 56.0283 429.683 58.7529C429.683 63.5283 430.254 66.8389 431.396 68.6846C432.539 70.5303 434.355 71.4531 436.846 71.4531ZM472.661 67.6299C475.005 67.6299 476.953 68.333 478.506 69.7393C480.059 71.1162 480.835 72.8887 480.835 75.0566C480.835 77.2246 480.059 79.0117 478.506 80.418C476.953 81.7949 475.005 82.4834 472.661 82.4834C470.288 82.4834 468.325 81.7803 466.772 80.374C465.249 78.9678 464.487 77.1953 464.487 75.0566C464.487 72.918 465.249 71.1455 466.772 69.7393C468.325 68.333 470.288 67.6299 472.661 67.6299Z" fill="black"/>
<defs>
<linearGradient id="paint0_linear" x1="0" y1="1" x2="0" y2="201" gradientUnits="userSpaceOnUse">
<stop stop-color="#0079FC"/>
<stop offset="0.46875" stop-color="#0079FC" stop-opacity="0"/>
</linearGradient>
</defs>
</svg>
