<svg width="482" height="120" viewBox="0 0 482 120" fill="none" xmlns="http://www.w3.org/2000/svg">
<path d="M190.938 86C190.41 85.0332 189.941 83.6123 189.531 81.7373C186.807 85.165 182.998 86.8789 178.105 86.8789C173.623 86.8789 169.814 85.5312 166.68 82.8359C163.545 80.1113 161.978 76.6982 161.978 72.5967C161.978 67.4404 163.882 63.5439 167.69 60.9072C171.499 58.2705 177.036 56.9521 184.302 56.9521H188.872V54.4473C188.872 50.082 186.982 47.8994 183.203 47.8994C179.688 47.8994 177.93 49.6279 177.93 53.085H163.12C163.12 48.4854 165.068 44.75 168.965 41.8789C172.891 39.0078 177.886 37.5723 183.95 37.5723C190.015 37.5723 194.805 39.0518 198.32 42.0107C201.836 44.9697 203.638 49.0273 203.726 54.1836V75.2334C203.784 79.5986 204.458 82.9385 205.747 85.2529V86H190.938ZM181.665 76.332C183.511 76.332 185.034 75.9365 186.235 75.1455C187.466 74.3545 188.345 73.4609 188.872 72.4648V64.8623H184.565C179.409 64.8623 176.831 67.1768 176.831 71.8057C176.831 73.1533 177.285 74.252 178.193 75.1016C179.102 75.9219 180.259 76.332 181.665 76.332ZM238.75 86C238.223 85.0332 237.754 83.6123 237.344 81.7373C234.619 85.165 230.811 86.8789 225.918 86.8789C221.436 86.8789 217.627 85.5312 214.492 82.8359C211.357 80.1113 209.79 76.6982 209.79 72.5967C209.79 67.4404 211.694 63.5439 215.503 60.9072C219.312 58.2705 224.849 56.9521 232.114 56.9521H236.685V54.4473C236.685 50.082 234.795 47.8994 231.016 47.8994C227.5 47.8994 225.742 49.6279 225.742 53.085H210.933C210.933 48.4854 212.881 44.75 216.777 41.8789C220.703 39.0078 225.698 37.5723 231.763 37.5723C237.827 37.5723 242.617 39.0518 246.133 42.0107C249.648 44.9697 251.45 49.0273 251.538 54.1836V75.2334C251.597 79.5986 252.271 82.9385 253.56 85.2529V86H238.75ZM229.478 76.332C231.323 76.332 232.847 75.9365 234.048 75.1455C235.278 74.3545 236.157 73.4609 236.685 72.4648V64.8623H232.378C227.222 64.8623 224.644 67.1768 224.644 71.8057C224.644 73.1533 225.098 74.252 226.006 75.1016C226.914 75.9219 228.071 76.332 229.478 76.332ZM288.101 80.8584C284.966 84.8721 280.732 86.8789 275.4 86.8789C270.186 86.8789 266.23 85.3701 263.535 82.3525C260.869 79.3057 259.536 74.9404 259.536 69.2568V38.4512H274.346V69.3447C274.346 73.417 276.323 75.4531 280.278 75.4531C283.677 75.4531 286.094 74.2373 287.529 71.8057V38.4512H302.427V86H288.54L288.101 80.8584ZM308.711 61.874C308.711 54.3447 310.337 48.4121 313.589 44.0762C316.841 39.7402 321.382 37.5723 327.212 37.5723C331.46 37.5723 335.034 39.2422 337.935 42.582V18.5H352.788V86H339.473L338.726 80.9023C335.679 84.8867 331.812 86.8789 327.124 86.8789C321.47 86.8789 316.987 84.7109 313.677 80.375C310.366 76.0391 308.711 69.8721 308.711 61.874ZM323.521 62.7969C323.521 71.2344 325.981 75.4531 330.903 75.4531C334.185 75.4531 336.528 74.0762 337.935 71.3223V53.2168C336.587 50.4043 334.272 48.998 330.991 48.998C326.421 48.998 323.945 52.6895 323.564 60.0723L323.521 62.7969ZM359.336 61.7861C359.336 57.04 360.259 52.8213 362.104 49.1299C363.95 45.4092 366.602 42.5527 370.059 40.5605C373.516 38.5684 377.573 37.5723 382.231 37.5723C389.351 37.5723 394.961 39.7842 399.062 44.208C403.164 48.6025 405.215 54.5938 405.215 62.1816V62.709C405.215 70.1211 403.149 76.0098 399.019 80.375C394.917 84.7109 389.351 86.8789 382.319 86.8789C375.552 86.8789 370.117 84.8574 366.016 80.8145C361.914 76.7422 359.702 71.2344 359.38 64.291L359.336 61.7861ZM374.146 62.709C374.146 67.1035 374.834 70.3262 376.211 72.377C377.588 74.4277 379.624 75.4531 382.319 75.4531C387.593 75.4531 390.288 71.3955 390.405 63.2803V61.7861C390.405 53.2607 387.681 48.998 382.231 48.998C377.28 48.998 374.6 52.6748 374.189 60.0283L374.146 62.709ZM431.846 75.4531C433.926 75.4531 435.537 74.8965 436.68 73.7832C437.822 72.6406 438.379 71.0586 438.35 69.0371H452.236C452.236 74.252 450.361 78.5293 446.611 81.8691C442.891 85.209 438.086 86.8789 432.197 86.8789C425.283 86.8789 419.834 84.7109 415.85 80.375C411.865 76.0391 409.873 70.0332 409.873 62.3574V61.7422C409.873 56.9375 410.752 52.7041 412.51 49.042C414.297 45.3506 416.86 42.5234 420.2 40.5605C423.54 38.5684 427.495 37.5723 432.065 37.5723C438.247 37.5723 443.154 39.2861 446.787 42.7139C450.42 46.1416 452.236 50.7852 452.236 56.6445H438.35C438.35 54.1836 437.749 52.2939 436.548 50.9756C435.347 49.6572 433.735 48.998 431.714 48.998C427.876 48.998 425.635 51.4443 424.99 56.3369C424.785 57.8896 424.683 60.0283 424.683 62.7529C424.683 67.5283 425.254 70.8389 426.396 72.6846C427.539 74.5303 429.355 75.4531 431.846 75.4531ZM467.661 71.6299C470.005 71.6299 471.953 72.333 473.506 73.7393C475.059 75.1162 475.835 76.8887 475.835 79.0566C475.835 81.2246 475.059 83.0117 473.506 84.418C471.953 85.7949 470.005 86.4834 467.661 86.4834C465.288 86.4834 463.325 85.7803 461.772 84.374C460.249 82.9678 459.487 81.1953 459.487 79.0566C459.487 76.918 460.249 75.1455 461.772 73.7393C463.325 72.333 465.288 71.6299 467.661 71.6299Z" fill="white"/>
<rect width="120" height="120" rx="16" fill="#38E1AF"/>
<path d="M28 29C28 27.8954 28.8954 27 30 27H32C45.2548 27 56 37.7452 56 51V82C56 83.1046 55.1046 84 54 84H52C38.7452 84 28 73.2548 28 60V29Z" fill="#53FFCC"/>
<path d="M64 38C64 36.8954 64.8954 36 66 36H68C81.2548 36 92 46.7452 92 60V91C92 92.1046 91.1046 93 90 93H88C74.7452 93 64 82.2548 64 69V38Z" fill="white"/>
</svg>
